<?xml version="1.0" encoding="UTF-8" standalone="no"?>
<!-- Uploaded to: SVG Repo, www.svgrepo.com, Generator: SVG Repo Mixer Tools -->
<svg width="800px" height="800px" viewBox="0 0 64 64" version="1.1" xmlns="http://www.w3.org/2000/svg" xmlns:xlink="http://www.w3.org/1999/xlink">
    
    <title>clo-cloud-wifi</title>
    <desc>Created with Sketch.</desc>
    <defs>

</defs>
    <g id="64px-Glyph" stroke="none" stroke-width="1" fill="none" fill-rule="evenodd">
        <g id="clo-cloud-wifi" fill="#000000">
            <path d="M46,38 L17,38 C12.037,38 8,33.963 8,29 C8,25.103 10.53,21.669 14.152,20.46 C14.051,19.983 14,19.495 14,19 C14,15.141 17.141,12 21,12 C22.554,12 24.038,12.511 25.247,13.435 C27.375,8.932 31.925,6 37,6 C44.111,6 49.908,11.741 49.999,18.831 C53.616,20.409 56,24.007 56,28 C56,33.514 51.514,38 46,38" id="Fill-259">

</path>
            <path d="M32,52 C26.925,52 22.154,50.023 18.566,46.435 C18.176,46.044 18.176,45.411 18.566,45.021 C18.957,44.63 19.59,44.63 19.98,45.021 C23.19,48.231 27.459,50 32,50 C36.586,50 40.885,48.201 44.106,44.935 C44.494,44.541 45.127,44.537 45.52,44.925 C45.914,45.313 45.918,45.945 45.53,46.339 C41.931,49.989 37.125,52 32,52" id="Fill-260">

</path>
            <path d="M32,45.9941 C28.671,45.9941 25.342,44.7261 22.808,42.1921 C22.417,41.8021 22.417,41.1691 22.808,40.7781 C23.198,40.3881 23.831,40.3881 24.222,40.7781 C28.511,45.0671 35.489,45.0671 39.778,40.7781 C40.169,40.3881 40.802,40.3881 41.192,40.7781 C41.583,41.1691 41.583,41.8021 41.192,42.1921 C38.658,44.7261 35.329,45.9941 32,45.9941" id="Fill-261">

</path>
            <path d="M32,57.9883 C25.855,57.9883 19.708,55.6493 15.029,50.9703 C14.639,50.5803 14.639,49.9473 15.029,49.5563 C15.42,49.1663 16.053,49.1663 16.443,49.5563 C25.021,58.1333 38.979,58.1333 47.557,49.5563 C47.947,49.1663 48.58,49.1663 48.971,49.5563 C49.361,49.9473 49.361,50.5803 48.971,50.9703 C44.292,55.6493 38.145,57.9883 32,57.9883" id="Fill-262">

</path>
        </g>
    </g>
</svg>