<?xml version="1.0" encoding="iso-8859-1"?>
<!-- Uploaded to: SVG Repo, www.svgrepo.com, Generator: SVG Repo Mixer Tools -->
<!DOCTYPE svg PUBLIC "-//W3C//DTD SVG 1.1//EN" "http://www.w3.org/Graphics/SVG/1.1/DTD/svg11.dtd">
<svg fill="#000000" version="1.1" id="Capa_1" xmlns="http://www.w3.org/2000/svg" xmlns:xlink="http://www.w3.org/1999/xlink" 
	 width="800px" height="800px" viewBox="0 0 45.057 45.057"
	 xml:space="preserve">
<g>
	<g id="_x35_7_27_">
		<g>
			<path d="M33.431,0H5.179v45.057h34.699V6.25L33.431,0z M36.878,42.056H8.179V3h23.707v4.76h4.992V42.056L36.878,42.056z"/>
			<path d="M17.529,21.595v-1.814h-3.75v1.814c0,2.888,0,5.772,0,8.66v1.875h0.127h1.748c0.625,0,1.25,0,1.875,0
				c1.897,0,3.794,0,5.691,0h1.812V28.3h-7.503C17.529,26.066,17.529,23.83,17.529,21.595z"/>
			<path d="M27.784,14.027H19.93v3.846h7.852c0,2.244,0,4.488,0,6.733c0,0.002,0.002,0.006,0.002,0.01v1.803h3.748v-1.812
				c0-2.888,0-5.776,0-8.663v-1.916H27.784L27.784,14.027z"/>
		</g>
	</g>
</g>
</svg>