<?xml version="1.0" encoding="UTF-8" standalone="no"?>
<!-- Uploaded to: SVG Repo, www.svgrepo.com, Generator: SVG Repo Mixer Tools -->
<svg width="800px" height="800px" viewBox="0 0 64 64" version="1.1" xmlns="http://www.w3.org/2000/svg" xmlns:xlink="http://www.w3.org/1999/xlink">
    
    <title>com-keyboard</title>
    <desc>Created with Sketch.</desc>
    <defs>

</defs>
    <g id="64px-Glyph" stroke="none" stroke-width="1" fill="none" fill-rule="evenodd">
        <g id="com-keyboard" fill="#000000">
            <polygon id="Fill-107" points="42 46 44 46 44 44 42 44">

</polygon>
            <polygon id="Fill-108" points="18 38 20 38 20 36 18 36">

</polygon>
            <polygon id="Fill-109" points="18 46 20 46 20 44 18 44">

</polygon>
            <polygon id="Fill-110" points="26 38 28 38 28 36 26 36">

</polygon>
            <polygon id="Fill-111" points="10 46 12 46 12 44 10 44">

</polygon>
            <polygon id="Fill-112" points="10 54 12 54 12 52 10 52">

</polygon>
            <polygon id="Fill-113" points="42 38 44 38 44 36 42 36">

</polygon>
            <polygon id="Fill-114" points="10 38 12 38 12 36 10 36">

</polygon>
            <polygon id="Fill-115" points="18 54 44 54 44 52 18 52">

</polygon>
            <polygon id="Fill-116" points="50 46 52 46 52 44 50 44">

</polygon>
            <polygon id="Fill-117" points="50 38 52 38 52 36 50 36">

</polygon>
            <polygon id="Fill-118" points="26 46 28 46 28 44 26 44">

</polygon>
            <polygon id="Fill-119" points="34 46 36 46 36 44 34 44">

</polygon>
            <polygon id="Fill-120" points="50 54 52 54 52 52 50 52">

</polygon>
            <path d="M54,39 C54,39.553 53.553,40 53,40 L49,40 C48.447,40 48,39.553 48,39 L48,35 C48,34.447 48.447,34 49,34 L53,34 C53.553,34 54,34.447 54,35 L54,39 Z M54,47 C54,47.553 53.553,48 53,48 L49,48 C48.447,48 48,47.553 48,47 L48,43 C48,42.447 48.447,42 49,42 L53,42 C53.553,42 54,42.447 54,43 L54,47 Z M54,55 C54,55.553 53.553,56 53,56 L49,56 C48.447,56 48,55.553 48,55 L48,51 C48,50.447 48.447,50 49,50 L53,50 C53.553,50 54,50.447 54,51 L54,55 Z M46,39 C46,39.553 45.553,40 45,40 L41,40 C40.447,40 40,39.553 40,39 L40,35 C40,34.447 40.447,34 41,34 L45,34 C45.553,34 46,34.447 46,35 L46,39 Z M46,47 C46,47.553 45.553,48 45,48 L41,48 C40.447,48 40,47.553 40,47 L40,43 C40,42.447 40.447,42 41,42 L45,42 C45.553,42 46,42.447 46,43 L46,47 Z M46,55 C46,55.553 45.553,56 45,56 L17,56 C16.447,56 16,55.553 16,55 L16,51 C16,50.447 16.447,50 17,50 L45,50 C45.553,50 46,50.447 46,51 L46,55 Z M14,39 C14,39.553 13.553,40 13,40 L9,40 C8.447,40 8,39.553 8,39 L8,35 C8,34.447 8.447,34 9,34 L13,34 C13.553,34 14,34.447 14,35 L14,39 Z M14,47 C14,47.553 13.553,48 13,48 L9,48 C8.447,48 8,47.553 8,47 L8,43 C8,42.447 8.447,42 9,42 L13,42 C13.553,42 14,42.447 14,43 L14,47 Z M14,55 C14,55.553 13.553,56 13,56 L9,56 C8.447,56 8,55.553 8,55 L8,51 C8,50.447 8.447,50 9,50 L13,50 C13.553,50 14,50.447 14,51 L14,55 Z M16,43 C16,42.447 16.447,42 17,42 L21,42 C21.553,42 22,42.447 22,43 L22,47 C22,47.553 21.553,48 21,48 L17,48 C16.447,48 16,47.553 16,47 L16,43 Z M16,35 C16,34.447 16.447,34 17,34 L21,34 C21.553,34 22,34.447 22,35 L22,39 C22,39.553 21.553,40 21,40 L17,40 C16.447,40 16,39.553 16,39 L16,35 Z M24,43 C24,42.447 24.447,42 25,42 L29,42 C29.553,42 30,42.447 30,43 L30,47 C30,47.553 29.553,48 29,48 L25,48 C24.447,48 24,47.553 24,47 L24,43 Z M24,35 C24,34.447 24.447,34 25,34 L29,34 C29.553,34 30,34.447 30,35 L30,39 C30,39.553 29.553,40 29,40 L25,40 C24.447,40 24,39.553 24,39 L24,35 Z M32,43 C32,42.447 32.447,42 33,42 L37,42 C37.553,42 38,42.447 38,43 L38,47 C38,47.553 37.553,48 37,48 L33,48 C32.447,48 32,47.553 32,47 L32,43 Z M32,35 C32,34.447 32.447,34 33,34 L37,34 C37.553,34 38,34.447 38,35 L38,39 C38,39.553 37.553,40 37,40 L33,40 C32.447,40 32,39.553 32,39 L32,35 Z M57,30 L32,30 L32,29 C32,26.243 34.243,24 37,24 L43,24 C46.859,24 50,20.859 50,17 C50,13.141 46.859,10 43,10 L25,10 C22.243,10 20,7.757 20,5 C20,4.447 19.553,4 19,4 C18.447,4 18,4.447 18,5 C18,8.859 21.141,12 25,12 L43,12 C45.757,12 48,14.243 48,17 C48,19.757 45.757,22 43,22 L37,22 C33.141,22 30,25.141 30,29 L30,30 L5,30 C4.447,30 4,30.447 4,31 L4,59 C4,59.553 4.447,60 5,60 L57,60 C57.553,60 58,59.553 58,59 L58,31 C58,30.447 57.553,30 57,30 L57,30 Z" id="Fill-121">

</path>
            <polygon id="Fill-122" points="34 38 36 38 36 36 34 36">

</polygon>
        </g>
    </g>
</svg>