<?xml version="1.0" encoding="UTF-8" standalone="no"?>
<!-- Uploaded to: SVG Repo, www.svgrepo.com, Generator: SVG Repo Mixer Tools -->
<svg width="800px" height="800px" viewBox="0 0 64 64" version="1.1" xmlns="http://www.w3.org/2000/svg" xmlns:xlink="http://www.w3.org/1999/xlink">
    
    <title>com-laptop-code</title>
    <desc>Created with Sketch.</desc>
    <defs>

</defs>
    <g id="64px-Glyph" stroke="none" stroke-width="1" fill="none" fill-rule="evenodd">
        <g id="com-laptop-code" fill="#000000">
            <path d="M10,17 C10,16.447 10.447,16 11,16 L51,16 C51.553,16 52,16.447 52,17 L52,41 C52,41.553 51.553,42 51,42 L11,42 C10.447,42 10,41.553 10,41 L10,17 Z M59,46 L56,46 L56,16 C56,13.794 54.206,12 52,12 L10,12 C7.794,12 6,13.794 6,16 L6,46 L3,46 C2.447,46 2,46.447 2,47 L2,48 C2,50.206 3.794,52 6,52 L56,52 C58.206,52 60,50.206 60,48 L60,47 C60,46.447 59.553,46 59,46 L59,46 Z" id="Fill-264">

</path>
            <path d="M43.6406,29.7686 L37.6406,34.7686 C37.4536,34.9236 37.2266,34.9996 37.0006,34.9996 C36.7136,34.9996 36.4296,34.8776 36.2316,34.6406 C35.8776,34.2156 35.9356,33.5846 36.3596,33.2316 L41.4376,28.9996 L36.3596,24.7686 C35.9356,24.4146 35.8776,23.7846 36.2316,23.3596 C36.5846,22.9356 37.2136,22.8786 37.6406,23.2316 L43.6406,28.2316 C43.8686,28.4216 43.9996,28.7036 43.9996,28.9996 C43.9996,29.2966 43.8686,29.5786 43.6406,29.7686 L43.6406,29.7686 Z M33.9696,21.2426 L29.9696,37.2426 C29.8566,37.6976 29.4496,37.9996 29.0006,37.9996 C28.9206,37.9996 28.8386,37.9906 28.7576,37.9696 C28.2216,37.8356 27.8956,37.2926 28.0306,36.7576 L32.0306,20.7576 C32.1636,20.2206 32.7066,19.8906 33.2426,20.0306 C33.7786,20.1646 34.1046,20.7066 33.9696,21.2426 L33.9696,21.2426 Z M25.6406,33.2316 C26.0646,33.5846 26.1226,34.2156 25.7686,34.6406 C25.5706,34.8776 25.2866,34.9996 24.9986,34.9996 C24.7736,34.9996 24.5466,34.9236 24.3596,34.7686 L18.3596,29.7686 C18.1316,29.5786 17.9996,29.2966 17.9996,28.9996 C17.9996,28.7036 18.1316,28.4216 18.3596,28.2316 L24.3596,23.2316 C24.7856,22.8786 25.4146,22.9356 25.7686,23.3596 C26.1226,23.7846 26.0646,24.4146 25.6406,24.7686 L20.5626,28.9996 L25.6406,33.2316 Z M11.9996,39.9996 L49.9996,39.9996 L49.9996,17.9996 L11.9996,17.9996 L11.9996,39.9996 Z" id="Fill-265">

</path>
        </g>
    </g>
</svg>